<svg id="Layer_1_copy" data-name="Layer 1 copy" xmlns="http://www.w3.org/2000/svg" viewBox="0 0 225 41.56"><defs><style>.cls-1{fill:#1e62bc;}.cls-2{fill:#1dbf1d;}.cls-3{fill:#F3F4F6}</style></defs><path class="cls-1" d="M30.15,39.52l14.19-6s-7.54,4.14-4.46,13.25H32Z" transform="translate(0 -12.65)"/><path class="cls-2" d="M0,44.75,18.74,36S30,34.39,39.88,46.77L14.17,54.21A22,22,0,0,0,0,44.75Z" transform="translate(0 -12.65)"/><path class="cls-1" d="M3.2,44.59S7.82,27.2,38.4,36C38.4,36-2.86,17.31,3.2,44.59Z" transform="translate(0 -12.65)"/><path class="cls-1" d="M21.7,30.87s8.79-11.15,26,4.1c0,0-17.8-8.56-20.1-2.2Z" transform="translate(0 -12.65)"/><circle class="cls-1" cx="13.96" cy="7.08" r="7.08"/><circle class="cls-1" cx="30.21" cy="8.28" r="4.1"/><path class="cls-3" d="M64.29,45.48a11.4,11.4,0,0,1-8.49-3.42,11.57,11.57,0,0,1-3.35-8.42A11.55,11.55,0,0,1,55.8,25.2a11.42,11.42,0,0,1,8.49-3.4A11.57,11.57,0,0,1,70,23.25a10.52,10.52,0,0,1,4.08,3.91l-3.87,2.25A5.94,5.94,0,0,0,67.81,27a7.81,7.81,0,0,0-8.87,1.22,7.43,7.43,0,0,0-2,5.4,7.35,7.35,0,0,0,2,5.36,7.83,7.83,0,0,0,8.88,1.22,5.78,5.78,0,0,0,2.39-2.36l3.87,2.25A10.63,10.63,0,0,1,70,44,11.67,11.67,0,0,1,64.29,45.48Z" transform="translate(0 -12.65)"/><path class="cls-3" d="M90.28,43a8.6,8.6,0,0,1-14.7-6.1A8.6,8.6,0,1,1,90.28,43ZM81,40.11a4.24,4.24,0,0,0,3.14,1.27,4.56,4.56,0,0,0,3.15-7.71,4.28,4.28,0,0,0-3.15-1.27A4.21,4.21,0,0,0,81,33.67a4.74,4.74,0,0,0,0,6.44Z" transform="translate(0 -12.65)"/><path class="cls-3" d="M95.42,45V21.28h4.2V45Z" transform="translate(0 -12.65)"/><path class="cls-3" d="M103.13,45V21.28h4.19V45Z" transform="translate(0 -12.65)"/><path class="cls-3" d="M114.38,38.61q.84,3.06,4.59,3.06A4.27,4.27,0,0,0,122.61,40L126,42a8.06,8.06,0,0,1-7.09,3.48A8.77,8.77,0,0,1,112.43,43,8.34,8.34,0,0,1,110,36.89a8.39,8.39,0,0,1,2.41-6.13,8.26,8.26,0,0,1,6.18-2.46,7.78,7.78,0,0,1,5.9,2.47,8.6,8.6,0,0,1,2.33,6.12,9.63,9.63,0,0,1-.17,1.72Zm-.06-3.25h8.29a3.91,3.91,0,0,0-1.48-2.47,4.26,4.26,0,0,0-2.55-.81,4.39,4.39,0,0,0-2.8.86A4,4,0,0,0,114.32,35.36Z" transform="translate(0 -12.65)"/><path class="cls-3" d="M141.74,28.76h4.09V44.24A7,7,0,0,1,143.35,50a9.35,9.35,0,0,1-6,2,10.05,10.05,0,0,1-4.63-1,7,7,0,0,1-3.07-3l3.57-2a5.16,5.16,0,0,0,7.39,1.24,3.8,3.8,0,0,0,1.14-3V42.48A6.15,6.15,0,0,1,136.53,45a7.66,7.66,0,0,1-5.77-2.43,8.61,8.61,0,0,1,0-11.79,7.71,7.71,0,0,1,5.76-2.44,6.17,6.17,0,0,1,5.21,2.47Zm-7.83,11.07a4.9,4.9,0,0,0,6.54,0,4.58,4.58,0,0,0,0-6.37,4.9,4.9,0,0,0-6.54,0,4.6,4.6,0,0,0,0,6.37Z" transform="translate(0 -12.65)"/><path class="cls-3" d="M152.86,38.61q.84,3.06,4.58,3.06A4.29,4.29,0,0,0,161.09,40l3.38,2a8.08,8.08,0,0,1-7.09,3.48A8.76,8.76,0,0,1,150.91,43a8.34,8.34,0,0,1-2.44-6.15,8.42,8.42,0,0,1,2.4-6.13,8.29,8.29,0,0,1,6.18-2.46A7.79,7.79,0,0,1,163,30.77a8.59,8.59,0,0,1,2.32,6.12,9.58,9.58,0,0,1-.16,1.72Zm-.07-3.25h8.3a3.91,3.91,0,0,0-1.48-2.47,4.26,4.26,0,0,0-2.56-.81,4.36,4.36,0,0,0-2.79.86A4.1,4.1,0,0,0,152.79,35.36Z" transform="translate(0 -12.65)"/><path class="cls-3" d="M181.42,24.4H170.85v8.39h10.08v2.15H170.85V45h-2.28V22.25h12.85Z" transform="translate(0 -12.65)"/><path class="cls-3" d="M186.85,24.86a1.52,1.52,0,0,1-1.11.45,1.56,1.56,0,1,1,0-3.12,1.52,1.52,0,0,1,1.11.45,1.59,1.59,0,0,1,0,2.22ZM184.67,45V28.76h2.14V45Z" transform="translate(0 -12.65)"/><path class="cls-3" d="M198.65,28.37a6.12,6.12,0,0,1,4.67,1.8A6.81,6.81,0,0,1,205,35V45h-2.15V35a4.7,4.7,0,0,0-1.15-3.39,4.33,4.33,0,0,0-3.27-1.2,5.12,5.12,0,0,0-3.81,1.48,6.3,6.3,0,0,0-1.46,4.57V45H191V28.76h2.15V31.3A6,6,0,0,1,198.65,28.37Z" transform="translate(0 -12.65)"/><path class="cls-3" d="M222.85,22.25H225V45h-2.15V41.83a7.26,7.26,0,0,1-6.57,3.58,8,8,0,0,1-5.93-2.47,8.67,8.67,0,0,1,0-12.1,8,8,0,0,1,5.93-2.47A7.26,7.26,0,0,1,222.85,32Zm-11,19.21a6.48,6.48,0,0,0,9.11,0,6.57,6.57,0,0,0,0-9.14,6.48,6.48,0,0,0-9.11,0,6.57,6.57,0,0,0,0,9.14Z" transform="translate(0 -12.65)"/></svg>
