<?xml version="1.0" encoding="UTF-8"?>
<!DOCTYPE svg PUBLIC "-//W3C//DTD SVG 1.1//EN" "http://www.w3.org/Graphics/SVG/1.1/DTD/svg11.dtd">
<!-- Creator: CorelDRAW X8 -->
<svg xmlns="http://www.w3.org/2000/svg" xml:space="preserve" width="125mm" height="60.0004mm" version="1.1" style="shape-rendering:geometricPrecision; text-rendering:geometricPrecision; image-rendering:optimizeQuality; fill-rule:evenodd; clip-rule:evenodd"
viewBox="0 0 7670 3682"
 xmlns:xlink="http://www.w3.org/1999/xlink">
 <defs>
  <style type="text/css">
   <![CDATA[
    .fil2 {fill:#C52F33}
    .fil0 {fill:#006CB5}
    .fil1 {fill:#C52F33}
    .fil3 {fill:#FEFEFE;fill-rule:nonzero}
   ]]>
  </style>
 </defs>
 <g id="Layer_x0020_1">
  <metadata id="CorelCorpID_0Corel-Layer"/>
  <g id="_1750727711936">
   <g>
    <path class="fil0" d="M0 1227c784,-1122 2043,-850 2590,0l1092 0c-682,-1624 -3041,-1648 -3682,0z"/>
    <path class="fil1" d="M3682 2455c-784,1122 -2043,850 -2591,0l-1091 0c682,1624 3041,1648 3682,0z"/>
   </g>
   <g>
    <polygon class="fil0" points="2423,2761 1977,2016 1550,2016 1703,1755 1824,1755 1502,1212 1675,920 2768,2761 "/>
    <polygon class="fil2" points="914,2238 1405,1361 1573,1662 1250,2238 "/>
   </g>
   <g>
    <path class="fil3" d="M3395 1997l-258 0 0 -488 -353 0 0 -159 965 0 0 159 -354 0 0 488zm1020 0l-257 0 0 -488 -354 0 0 -159 965 0 0 159 -354 0 0 488zm1141 -486l-410 0 0 158 410 0c35,0 59,-6 73,-18 14,-12 21,-35 21,-67 0,-25 -8,-44 -22,-55 -15,-12 -39,-18 -72,-18zm10 -161c134,0 225,15 274,46 48,30 72,86 72,166 0,56 -11,98 -32,125 -22,27 -58,45 -108,54 44,9 78,23 100,44 22,20 33,47 33,80l0 132 -258 0 0 -99c0,-25 -7,-43 -23,-52 -16,-10 -47,-14 -93,-14l-385 0 0 165 -258 0 0 -647 678 0zm779 647l-259 0 0 -647 259 0 0 647zm100 0l416 -328 -384 -319 322 0 263 227 265 -227 311 0 -373 319 405 328 -332 0 -276 -227 -281 227 -336 0z"/>
    <path class="fil3" d="M2761 2083l289 0 0 32 -121 0 0 214 -49 0 0 -214 -119 0 0 -32zm443 1l196 0 0 31 -146 0 0 75 141 0 0 31 -141 0 0 76 150 0 0 32 -200 0 0 -245zm658 188l0 39c-36,14 -78,21 -125,21 -39,0 -71,-6 -98,-17 -27,-11 -48,-26 -64,-45 -16,-20 -23,-40 -23,-63 0,-36 17,-66 53,-90 36,-24 80,-37 133,-37 36,0 76,7 121,21l0 37c-41,-16 -80,-24 -119,-24 -39,0 -72,9 -98,26 -26,18 -39,40 -39,67 0,27 13,49 38,66 26,18 59,27 99,27 42,0 82,-10 122,-28zm412 -188l50 0 0 245 -50 0 0 -107 -194 0 0 107 -49 0 0 -245 49 0 0 106 194 0 0 -106zm508 0l47 0 0 245 -43 0 -231 -189 0 189 -46 0 0 -245 40 0 233 190 0 -190zm398 -4c53,0 98,12 133,36 35,24 53,54 53,90 0,37 -18,67 -53,90 -36,24 -81,36 -136,36 -52,0 -95,-12 -130,-36 -35,-23 -52,-53 -52,-89 0,-37 17,-67 52,-91 35,-24 79,-36 133,-36zm2 33c-40,0 -72,9 -98,27 -25,17 -38,40 -38,67 0,27 13,49 38,66 26,18 58,27 96,27 39,0 71,-9 97,-27 26,-18 38,-41 38,-67 0,-26 -12,-48 -38,-66 -26,-18 -58,-27 -95,-27zm353 -29l49 0 0 213 155 0 0 32 -204 0 0 -245zm525 -4c53,0 98,12 133,36 36,24 53,54 53,90 0,37 -18,67 -53,90 -36,24 -81,36 -136,36 -52,0 -95,-12 -130,-36 -35,-23 -52,-53 -52,-89 0,-37 18,-67 52,-91 35,-24 79,-36 133,-36zm2 33c-40,0 -72,9 -98,27 -25,17 -38,40 -38,67 0,27 13,49 38,66 26,18 58,27 96,27 39,0 71,-9 97,-27 26,-18 38,-41 38,-67 0,-26 -12,-48 -38,-66 -26,-18 -58,-27 -95,-27zm539 95l116 0 0 104c-43,13 -85,20 -127,20 -57,0 -102,-12 -136,-36 -35,-23 -52,-53 -52,-88 0,-36 18,-67 53,-91 36,-24 80,-37 134,-37 19,0 37,2 55,5 17,3 39,8 66,16l0 36c-41,-17 -82,-25 -122,-25 -38,0 -70,9 -96,27 -26,18 -39,41 -39,67 0,28 13,51 39,69 26,17 59,26 100,26 20,0 43,-3 71,-9l5 -1 0 -52 -67 0 0 -31zm296 -124l50 0 0 245 -50 0 0 -245zm234 0l196 0 0 31 -146 0 0 75 141 0 0 31 -141 0 0 76 150 0 0 32 -200 0 0 -245zm446 142l-37 -16c-24,-10 -40,-20 -50,-30 -10,-10 -15,-22 -15,-34 0,-20 9,-35 28,-47 19,-13 43,-19 73,-19 29,0 56,6 80,18l0 40c-25,-17 -52,-26 -81,-26 -16,0 -29,3 -39,8 -11,5 -16,12 -16,20 0,8 4,15 11,21 8,7 20,13 37,20l38 16c42,18 63,41 63,68 0,20 -9,36 -27,48 -19,13 -43,19 -73,19 -34,0 -65,-8 -93,-22l0 -45c27,24 58,36 93,36 15,0 28,-3 38,-9 11,-6 16,-14 16,-23 0,-15 -15,-30 -46,-43z"/>
   </g>
  </g>
 </g>
</svg>
