<svg clip-rule="evenodd" fill-rule="evenodd" height="60mm" image-rendering="optimizeQuality" shape-rendering="geometricPrecision" text-rendering="geometricPrecision" viewBox="0 0 7813 3750" width="125mm" xmlns="http://www.w3.org/2000/svg"><path d="m0 1250c799-1143 2080-866 2638 0h1112c-694-1655-3097-1679-3750 0z" fill="#006cb5"/><path d="m3750 2500c-799 1143-2080 866-2638 0h-1112c694 1655 3097 1679 3750 0z" fill="#c52f33"/><path d="m2468 2812-455-759h-435l157-266h123l-329-553 177-297 1113 1875z" fill="#006cb5"/><path d="m931 2279 500-893 171 307-329 586z" fill="#c52f33"/><g fill="#373435" fill-rule="nonzero"><path d="m3458 2034h-262v-497h-360v-162h982v162h-360zm1039 0h-262v-497h-360v-162h982v162h-360zm1162-495h-417v161h417c35 0 60-6 74-18 14-13 21-36 21-68 0-26-7-45-22-57s-39-18-73-18zm10-164c137 0 229 16 279 47 49 31 74 87 74 169 0 57-11 99-33 127s-59 46-110 56c45 8 79 23 102 44 22 21 34 48 34 81v135h-263v-100c0-26-8-44-24-54s-48-15-94-15h-392v169h-264v-659zm793 659h-263v-659h263zm103 0 423-335-391-324h328l268 231 269-231h317l-380 324 414 335h-339l-281-231-286 231z"/><path d="m2813 2122h293v32h-122v218h-51v-218h-120zm450 0h200v32h-149v76h144v32h-144v78h153v32h-204zm671 192v40c-37 14-80 21-128 21-39 0-73-6-100-17s-49-26-65-46-24-41-24-64c0-36 19-67 55-92 37-25 82-37 135-37 37 0 78 7 123 20v39c-41-17-81-25-121-25s-73 9-100 27c-26 18-40 41-40 68s13 50 40 68c26 17 59 26 100 26 43 0 84-9 125-28zm419-192h51v250h-51v-109h-197v109h-50v-250h50v108h197zm517 0h48v250h-43l-235-192v192h-48v-250h41l237 194zm406-3c54 0 99 12 135 36 37 25 55 55 55 92s-19 68-55 92c-37 24-83 36-138 36-53 0-97-12-133-36-35-24-52-55-52-91 0-37 17-68 53-93 35-24 80-36 135-36zm2 34c-41 0-74 9-100 26-25 18-38 41-38 69 0 27 13 49 39 67s58 27 97 27 72-9 98-27c27-19 40-41 40-68s-13-49-40-67c-26-18-58-27-96-27zm359-31h50v218h159v32h-209zm535-3c54 0 100 12 136 36 36 25 54 55 54 92s-18 68-55 92c-36 24-82 36-138 36-53 0-97-12-132-36s-53-55-53-91c0-37 18-68 53-93 36-24 81-36 135-36zm2 34c-40 0-73 9-99 26-26 18-39 41-39 69 0 27 13 49 39 67s58 27 98 27c39 0 72-9 98-27 26-19 39-41 39-68s-13-49-39-67-59-27-97-27zm549 96h118v106c-43 13-86 20-128 20-59 0-105-12-140-36s-52-54-52-90c0-37 18-68 54-93s81-37 136-37c19 0 38 1 56 5 18 3 40 8 67 16v37c-42-18-83-26-124-26-39 0-71 9-98 28-26 18-39 41-39 68 0 29 13 52 39 70 27 18 61 27 102 27 20 0 44-3 72-10l5-1v-52h-68zm302-127h50v250h-50zm238 0h199v32h-148v76h143v32h-143v78h153v32h-204zm455 145-38-16c-24-11-41-21-52-31-10-10-15-22-15-35 0-19 10-35 29-48 19-12 44-18 75-18 29 0 56 6 81 18v40c-26-17-53-26-82-26-17 0-30 3-41 8-10 6-16 13-16 21s4 15 12 21c8 7 20 14 37 21l39 16c43 18 64 41 64 69 0 20-9 37-28 49-19 13-43 19-74 19-34 0-66-8-94-23v-45c27 24 58 36 94 36 16 0 29-3 39-9 11-6 16-14 16-23 0-16-15-30-46-44z"/></g></svg>